# xmcd
#
# Track frame offsets: 
#        150
#        17696
#        53919
#        83714
#        115865
#        149420
#        174332
#        187600
#        227428
#
# Disc length: 3432 seconds
#
# Revision: 3
# Processed by: cddbd v1.5.2PL0 Copyright (c) Steve Scherf et al.
# Submitted via: ExactAudioCopyFreeDBPlugin 1.0
#
DISCID=630d6609
DTITLE=Various Artist - The Best of Disco Demands
DYEAR=2012
DGENRE=Rhythm and Blues
TTITLE0=Bobby Sanders and Magic - Strung Out
TTITLE1=The Good Life Ltd - I Got It
TTITLE2=Al Tanner - Doing Our Own Thang
TTITLE3=Arthur King - Fear
TTITLE4=Sylvano Santorio - We've Got It
TTITLE5=Mr. Q - Party Party
TTITLE6=Power of Attorney - You Got Over on Me
TTITLE7=Sizzle - Love is All Around
TTITLE8=Brooklyn Express - Back in Time
EXTD=
EXTT0=
EXTT1=
EXTT2=
EXTT3=
EXTT4=
EXTT5=
EXTT6=
EXTT7=
EXTT8=
PLAYORDER=
